<?xml version="1.0" encoding="utf-8"?>
<!-- Generator: Adobe Illustrator 15.0.0, SVG Export Plug-In . SVG Version: 6.00 Build 0)  -->
<!DOCTYPE svg PUBLIC "-//W3C//DTD SVG 1.1//EN" "http://www.w3.org/Graphics/SVG/1.1/DTD/svg11.dtd">
<svg version="1.1" xmlns="http://www.w3.org/2000/svg" xmlns:xlink="http://www.w3.org/1999/xlink" x="0px" y="0px"
	 width="397.2188px" height="357.895px" viewBox="0 0 397.2188 357.895" enable-background="new 0 0 397.2188 357.895"
	 xml:space="preserve">
<g id="Renew_License">
	<g>
		<g>
			<g>
				<g>
					<g>
						<path fill="#231F20" d="M100.3008,88.5742c-3.8125,0-6.9141,3.0938-6.9141,6.8945c0,3.7969,3.1016,6.8906,6.9141,6.8906
							h137.625c3.8164,0,6.9141-3.0938,6.9141-6.8906c0-3.8008-3.0977-6.8945-6.9102-6.8945H100.3008z"/>
					</g>
				</g>
			</g>
		</g>
		<g>
			<g>
				<g>
					<g>
						<path fill="#231F20" d="M100.3008,137.5664c-3.8125,0-6.9141,3.0898-6.9141,6.8906c0,3.7969,3.1016,6.8833,6.9141,6.8833
							h78.6445c3.8125,0,6.9102-3.0864,6.9102-6.8833c0-3.8008-3.0977-6.8906-6.9102-6.8906H100.3008z"/>
					</g>
				</g>
			</g>
		</g>
		<g>
			<g>
				<g>
					<g>
						<path fill="#231F20" d="M252.6758,191.8716c-17.3633,0-31.4922,14.082-31.4922,31.3906
							c0,17.3047,14.1289,31.3828,31.4922,31.3828c17.3594,0,31.4883-14.0781,31.4883-31.3828
							C284.1641,205.9536,270.0352,191.8716,252.6758,191.8716z M252.6758,240.8599c-9.7422,0-17.6641-7.8984-17.6641-17.6094
							c0-9.7031,7.9219-17.5977,17.6641-17.5977c9.7383,0,17.6602,7.8945,17.6602,17.5977
							C270.3359,232.9614,262.4141,240.8599,252.6758,240.8599z"/>
					</g>
				</g>
			</g>
		</g>
		<g>
			<g>
				<g>
					<g>
						<path fill="#231F20" d="M254.0273,309.9536l15.7617,41.3789c0.6836,1.7734,1.6641,3.2031,2.9922,4.3516
							c1.5625,1.3828,3.7305,2.2109,5.8047,2.2109h0.1328c1.5703,0,3.207-0.4609,4.6289-1.2773
							c1.1953-0.6953,2.2148-1.5898,3.1172-2.7422l12.4258-15.082l0.5195-0.1133l18.4727,3.3008
							c3.1797,0.5586,6.4258-0.2227,8.6211-2.25c1.8242-1.6367,2.9609-4.2695,2.9023-6.7148c0-1.3516-0.2422-2.6406-0.7422-3.9609
							l-11.4922-30.1562h60.8438c10.5938,0,19.2031-8.5859,19.2031-19.1367V19.1328C397.2188,8.582,388.6094,0,378.0156,0H19.2031
							C8.6133,0,0,8.582,0,19.1328v260.6294c0,10.5508,8.6133,19.1367,19.2031,19.1367h171.6758l-11.4844,30.1445
							c-0.4961,1.3047-0.75,2.625-0.7539,3.9336c-0.0586,2.4844,1.0781,5.1172,2.8906,6.7383
							c1.7031,1.5664,4.0859,2.457,6.5547,2.457c0.668,0,1.3516-0.0625,2.0898-0.1914l18.4727-3.3047l1.1016,0.375l0.3438,0.2891
							l11.4961,14.5391c0.9141,1.1523,1.9336,2.0508,3.1172,2.7383c1.4375,0.8359,3.082,1.2773,4.7617,1.2773
							c2.0664,0,4.2227-0.8242,5.7773-2.1992c1.3516-1.1523,2.3359-2.582,3.0273-4.375L254.0273,309.9536z M280.125,339.6372
							l-17.8906-46.9297l1.4102-0.2188c10.7891-1.6719,21.1953-5.9023,30.0898-12.2305l1.2109-0.8594l18.1992,47.7461
							l-11.3516-2.0273c-0.7695-0.1367-1.5625-0.207-2.3594-0.207c-2.2695,0.0156-4.4297,0.5-6.5977,1.4766
							c-2.2969,1.0508-4.125,2.4336-5.582,4.2383L280.125,339.6372z M227.9375,339.6372l-7.1523-9.0312
							c-1.4531-1.8047-3.2227-3.1523-5.5742-4.2383c-2.1836-0.9688-4.3516-1.4453-6.6016-1.457
							c-0.8438,0-1.6094,0.0664-2.3477,0.207l-11.3555,2.0273l17.5898-46.168l1.1992,0.7891
							c9.0977,5.9961,19.6484,9.8477,30.5156,11.1367l1.4648,0.168L227.9375,339.6372z M378.0156,285.1255h-66.0859l-6.0312-15.8164
							l0.4492-0.5234c3.5742-4.1367,6.6562-8.6914,9.1719-13.5352l0.3242-0.6172h32.6836c2.4531,0,4.4492-1.9922,4.4492-4.4336
							V43.625c0-2.4492-1.9961-4.4414-4.4492-4.4414H48.6914c-2.457,0-4.4531,1.9922-4.4531,4.4414v206.5747
							c0,2.4414,1.9961,4.4336,4.4531,4.4336h140.8164l0.3203,0.6172c2.9414,5.6562,6.6602,10.9141,11.0508,15.6211l0.4883,0.5195
							l-5.2383,13.7344H19.2031c-2.918,0-5.3828-2.457-5.3828-5.3633V19.1328c0-2.9062,2.4648-5.3633,5.3828-5.3633h358.8125
							c2.9141,0,5.3789,2.457,5.3789,5.3633v260.6294C383.3945,282.6685,380.9297,285.1255,378.0156,285.1255z M252.6758,279.6411
							c-31.418,0-56.9844-25.4805-56.9844-56.8008c0-31.3164,25.5664-56.793,56.9844-56.793s56.9805,25.4766,56.9805,56.793
							C309.6562,254.1606,284.0938,279.6411,252.6758,279.6411z M339.1562,240.8599H321.082l0.3438-1.4219
							c1.3672-5.6016,2.0625-11.1875,2.0625-16.5977c0-38.9141-31.7695-70.5742-70.8125-70.5742
							c-39.0469,0-70.8125,31.6602-70.8125,70.5742c0,5.4102,0.6953,10.9961,2.0625,16.5977l0.3477,1.4219H58.0586V52.9609h281.0977
							V240.8599z"/>
					</g>
				</g>
			</g>
		</g>
	</g>
</g>
<g id="Guides">
</g>
</svg>
