<?xml version="1.0" encoding="UTF-8" standalone="no"?>
<svg
   xmlns:dc="http://purl.org/dc/elements/1.1/"
   xmlns:cc="http://creativecommons.org/ns#"
   xmlns:rdf="http://www.w3.org/1999/02/22-rdf-syntax-ns#"
   xmlns:svg="http://www.w3.org/2000/svg"
   xmlns="http://www.w3.org/2000/svg"
   xmlns:sodipodi="http://sodipodi.sourceforge.net/DTD/sodipodi-0.dtd"
   xmlns:inkscape="http://www.inkscape.org/namespaces/inkscape"
   viewBox="0 0 32 40"
   version="1.1"
   id="svg4"
   sodipodi:docname="Diploma1.svg"
   inkscape:version="0.92.4 (5da689c313, 2019-01-14)"
   width="32"
   height="40">
  <metadata
     id="metadata10">
    <rdf:RDF>
      <cc:Work
         rdf:about="">
        <dc:format>image/svg+xml</dc:format>
        <dc:type
           rdf:resource="http://purl.org/dc/dcmitype/StillImage" />
        <dc:title></dc:title>
      </cc:Work>
    </rdf:RDF>
  </metadata>
  <defs
     id="defs8" />
  <sodipodi:namedview
     pagecolor="#ffffff"
     bordercolor="#666666"
     borderopacity="1"
     objecttolerance="10"
     gridtolerance="10"
     guidetolerance="10"
     inkscape:pageopacity="0"
     inkscape:pageshadow="2"
     inkscape:window-width="1207"
     inkscape:window-height="492"
     id="namedview6"
     showgrid="false"
     inkscape:zoom="5.7875768"
     inkscape:cx="13.229911"
     inkscape:cy="26.887465"
     inkscape:window-x="2006"
     inkscape:window-y="336"
     inkscape:window-maximized="0"
     inkscape:current-layer="svg4" />
  <path
     style="stroke-width:0.51195943"
     d="m 23.761003,16.427437 c -0.180889,1.247858 -1.631667,0.805184 -2.5159,0.887353 -4.885745,0 -9.771489,0 -14.6572336,0 -2.0607107,-0.55229 -0.1860353,-2.257965 1.1431817,-1.774707 5.0065899,0 10.0131789,0 15.0197679,0 0.509465,-0.06341 1.026427,0.3613 1.010184,0.887354 z M 5.3118474,10.906127 C 5.3316784,9.478933 5.2714234,8.047408 5.3433114,6.62303 5.7168826,5.136349 7.4115621,5.464976 8.5696854,5.434115 c 4.6713586,0.01922 9.3463016,-0.03859 14.0154006,0.02917 1.353708,0.193348 1.339452,1.648441 1.282253,2.696855 -0.05647,1.100846 0.127648,2.23494 -0.122119,3.309822 -0.690985,1.337356 -2.338879,0.805702 -3.551422,0.915083 -4.537901,-0.01918 -9.079215,0.03853 -13.6149629,-0.02917 C 5.8823317,12.249326 5.2930011,11.62636 5.3118474,10.906123 Z m 1.9672007,-0.345082 c 4.8736969,0 9.7473939,0 14.6210899,0 0,-1.100975 0,-2.201951 0,-3.302926 -4.873696,0 -9.747393,0 -14.6210899,0 0,1.100975 0,2.201951 0,3.302926 z M 30.300618,31.167361 c -0.04733,2.666394 0.01987,5.34037 -0.101561,8.001874 -0.335571,1.655446 -2.21756,1.134588 -3.028903,0.198333 -0.640153,-0.498587 -1.280307,-0.997173 -1.92046,-1.495759 -1.129697,0.796218 -2.122118,1.821882 -3.374479,2.415573 -1.332836,0.367686 -1.805123,-1.133296 -1.623273,-2.167772 0.2721,-0.90364 -0.834008,-0.429071 -1.351033,-0.543586 -5.557493,-0.0083 -11.1157659,0.01661 -16.6727696,-0.0125 -1.51698581,-0.07523 -2.57673261,-1.572745 -2.33938701,-3.026627 0.00899,-10.801776 -0.017979,-21.604535 0.013487,-32.405696 0.1551163,-1.603551 1.87555311,-2.3666964 3.31920481,-2.1690984 8.0869948,0.0083 16.1747728,-0.01664 24.2612778,0.0125 1.516986,0.07523 2.576733,1.5727394 2.339387,3.0266224 0,5.954324 0,11.908649 0,17.862973 3.067118,2.028273 3.703808,6.720255 1.277269,9.484455 -0.242254,0.295019 -0.509893,0.569156 -0.79876,0.818703 z m -0.319006,-7.296016 c -1.803201,-3.276299 -7.00313,-3.507392 -9.127644,-0.441366 -1.751569,2.230102 -0.846108,5.713908 1.577844,7.047227 2.551061,1.475759 6.344564,0.741283 7.67488,-2.047378 0.746268,-1.412255 0.72168,-3.193939 -0.12508,-4.558483 z m -9.72967,11.78208 c 0,-1.166705 0,-2.333411 0,-3.500116 -4.554691,0 -9.109381,0 -13.6640726,0 -2.0607108,-0.552291 -0.1860349,-2.257963 1.1431817,-1.774706 3.8900699,0 7.7801399,0 11.6702099,0 -1.115006,-0.696177 -0.857604,-2.777056 -1.85123,-3.10574 -3.654053,0 -7.308107,0 -10.9621616,0 -2.0607108,-0.552291 -0.1860349,-2.257963 1.1431817,-1.774706 3.4115619,0 6.8231239,0 10.2346849,0 -0.224333,-1.064956 1.436424,-2.700284 1.017412,-3.05644 -4.131759,0 -8.263519,0 -12.3952786,0 -2.0607108,-0.552291 -0.1860349,-2.257963 1.1431817,-1.774706 4.5635259,0 9.1270519,0 13.6905779,0 1.897642,-1.102365 4.314016,-1.285431 6.380115,-0.542272 0,-5.915688 0,-11.831375 0,-17.747063 C 27.5677,1.412242 26.336908,1.909483 25.604849,1.786107 c -7.703628,0 -15.407256,0 -23.1108846,0 -1.0217785,0.163872 -0.5166963,1.424424 -0.638011,2.150453 0,10.358667 0,20.717333 0,31.075999 0.2340444,0.965434 1.4648358,0.468193 2.1968955,0.591569 5.3996985,0 10.7993951,0 16.1990931,0 z m 8.081475,-3.204331 c -1.857749,0.790937 -4.130891,0.819078 -6.007959,-0.04927 -0.01772,1.791139 -0.03545,3.582279 -0.05317,5.373418 0.906026,-0.66202 1.729492,-1.452852 2.691609,-2.027356 1.126078,-0.160886 1.818449,0.965962 2.69533,1.4995 0.695545,0.796151 0.762954,0.302708 0.674171,-0.5114 7e-6,-1.428296 1.3e-5,-2.856592 1.9e-5,-4.284888 z"
     id="path2"
     inkscape:connector-curvature="0" />
</svg>
